<svg version="1.1" viewBox="0 0 1024 1024" width="1024" height="1024" xmlns="http://www.w3.org/2000/svg">
<path transform="translate(348,152)" d="m0 0h361l21 3 21 6 15 6 15 8 14 10 11 10 6 5 7 8 13 18 8 14 7 15 5 15 5 22 1 7 1 20v332l-1 17-5 25-8 24-8 16-10 16-11 13-11 12-12 10-18 11-14 7-17 6-21 5-16 2h-359l-19-2-21-5-16-6-16-8-16-11-10-9-8-7-12-14-10-15-11-21-8-26-3-17-1-9v-325l1-41 3-19 5-20 9-21 10-17 10-13 20-20 15-11 18-10 20-8 19-5z" fill="#213E4C"/>
<path transform="translate(523,214)" d="m0 0h11l15 2 16 5 12 6 12 8 10 9 9 10 7 10 8 16 4 16 1 8v25l-4 16-4 10-12 19-3 6v17l4 10 8 11 9 10 12 9 11 5 15 3 19 1h45l16 3 12 5 16 11 10 9 9 13 7 14 4 14 1 9v16l-3 16-7 16-8 12-8 9-10 7-16 7-7 2-8 1h-17l-16-4-10-5-10-8-8-11-5-10-2-7v-19l4-13 6-8 7-6 10-3h11l11 4 7 6 4 8-1 6-2 3h-15l-5 3-1 2v7l4 8 6 5 6 2h14l9-3 9-7 6-10 3-13v-8l-3-12-4-8-9-10-10-6-12-3-44-1-17-1-20-4-13-5-12-7-11-9-8-11-6-13-1-7h-2l-5-9-2-2h-12l-1 3h-2l3 13 3 15 7 24 5 12 8 12 8 8 11 9 16 16 8 10 8 17 5 23 2 42 1 11v16l-5 16-7 13-11 12-9 6-10 4-6 1h-21l-13-4-11-7-10-10-5-11-3-15v-34l3-14 5-10 7-7 8-3 7 1 6 5 2 5v14l-4 14v14l4 11 4 5 8 4 9-1 5-3 4-9 1-4-1-49-3-13-8-15-6-7v-2l-4-2-7-7-12-9-8-7-10-13-5-10-3-10-1-7v-53l-5-2-12-3h-6l-3-4 1 22v34l-2 15-7 13-7 10-9 10-11 9-15 14-10 15-5 11-2 10v36l1 15 4 8 8 7 2 1 9-1 6-4 5-9 1-13-2-14-6-9-4-5v-7l4-8 8-4h8l10 5 8 8 4 8 4 13 2 10v29l-4 13-6 11-9 10-14 7-13 3h-15l-12-3-10-5-9-7-7-7-6-10-4-8-3-14 1-67 4-22 8-19 6-11 12-13 11-10 11-9 9-12 5-10 6-18 7-17 2-12-1-8h-7l-6 3-7 10-9 15-10 13-10 8-16 9-18 6-4 1-67 1-10 2-12 6-10 8-7 11-3 16 2 13 5 10 6 7 11 6 9 2 11-1 9-5 6-9-1-9-2-3-17-2-5-3-1-1v-9l5-6 8-4 9-2h12l8 3 8 7 6 8 4 8 2 8v15l-3 11-9 14-9 9-14 7-11 3-6 1h-16l-16-4-12-5-10-7-10-9-8-11-7-14-4-15-1-8v-11l2-15 5-15 6-11 7-9 8-9 14-11 13-6 12-3 7-1 52-1 22-2 14-4 17-8 10-8 7-10 4-11 2-9v-17l-16-24-5-12-3-12-1-6v-24l3-12 6-16 8-13 8-10 7-7h2v-2l14-10 12-6 18-6z" fill="#19D8C1"/>
<path transform="translate(607,407)" d="m0 0 3 1 4 6 8 10 10 9 14 8 11 3 7 1 19 1h45l16 3 12 5 16 11 10 9 9 13 7 14 4 14 1 9v16l-3 16-7 16-8 12-8 9-10 7-16 7-7 2-8 1h-17l-16-4-10-5-10-8-8-11-5-10-2-7v-19l4-13 6-8 7-6 10-3h11l11 4 7 6 4 8-1 6-2 3h-15l-5 3-1 2v7l4 8 6 5 6 2h14l9-3 9-7 6-10 3-13v-8l-3-12-4-8-9-10-10-6-12-3-44-1-17-1-20-4-13-5-12-7-11-9-8-11-6-13-2-7v-12l5-5 11-5z" fill="#FCFDFD"/>
<path transform="translate(448,414)" d="m0 0h2v3l12 1 7 3v11l-1 3 2 1-9 15-10 13-10 8-16 9-18 6-4 1-67 1-10 2-12 6-10 8-7 11-3 16 2 13 5 10 6 7 11 6 9 2 11-1 9-5 6-9-1-9-2-3-17-2-5-3-1-1v-9l5-6 8-4 9-2h12l8 3 8 7 6 8 4 8 2 8v15l-3 11-9 14-9 9-14 7-11 3-6 1h-16l-16-4-12-5-10-7-10-9-8-11-7-14-4-15-1-8v-11l2-15 5-15 6-11 7-9 8-9 14-11 13-6 12-3 7-1 52-1 22-2 14-4 17-8 10-8z" fill="#FCFDFD"/>
<path transform="translate(502,420)" d="m0 0h9l3 4 2 14 1 16v34l-2 15-7 13-7 10-9 10-11 9-15 14-10 15-5 11-2 10v36l1 15 4 8 8 7 2 1 9-1 6-4 5-9 1-13-2-14-6-9-4-5v-7l4-8 8-4h8l10 5 8 8 4 8 4 13 2 10v29l-4 13-6 11-9 10-14 7-13 3h-15l-12-3-10-5-9-7-7-7-6-10-4-8-3-14 1-67 4-22 8-19 6-11 12-13 11-10 11-9 9-12 5-10 6-18 7-17 3-12 6-9z" fill="#FCFDFD"/>
<path transform="translate(556,419)" d="m0 0h6l5 5 3 13 3 15 7 24 5 12 8 12 8 8 11 9 16 16 8 10 8 17 5 23 2 42 1 11v16l-5 16-7 13-11 12-9 6-10 4-6 1h-21l-13-4-11-7-10-10-5-11-3-15v-34l3-14 5-10 7-7 8-3 7 1 6 5 2 5v14l-4 14v14l4 11 4 5 8 4 9-1 5-3 4-9 1-4-1-49-3-13-8-15-6-7v-2l-4-2-7-7-12-9-8-7-10-13-5-10-3-10-1-7v-42l2-19 11-13z" fill="#FCFDFD"/>
<path transform="translate(320,274)" d="m0 0h21l13 2 15 6 14 10 11 10 8 14 4 12 3 18 7 14 9 10 10 7v8l-3 16-6 8-5 2-9-1-11-4-11-7-8-9-6-13-3-9-2-19-4-12-6-9-7-6-12-5h-19l-11 4-11 8-6 9-2 8 1 11 4 9 5 6 9 2 6-2 2-3v-8l-1-9 5-5 2-1h10l8 6 3 4 3 9v11l-2 9-5 10-9 10-9 5-8 2h-17l-13-4-11-6-12-12-8-16-3-9-1-6v-17l3-16 5-12 7-11 9-10 9-7 14-7 15-4z" fill="#FCFDFD"/>
<path transform="translate(715,274)" d="m0 0h19l13 2 13 5 12 7 10 8 9 10 7 12 4 11 2 10v26l-4 13-7 12-11 12-8 5-16 5h-14l-13-4-10-6-7-8-4-7-2-9v-13l3-10 7-6 5-2h8l5 3 3 5-1 13 5 5 6 1 8-4 4-4 3-10v-10l-3-10-5-8-7-6-13-5h-18l-11 4-6 4-7 7-5 10-2 8-1 16-4 13-7 12-9 10-10 7-8 3h-10l-6-5-4-9-2-10v-10l9-6 8-8 6-13 2-8 3-19 4-9 7-12 7-8 13-10 14-7z" fill="#FCFDFD"/>
<path transform="translate(561,334)" d="m0 0h7l8 3 5 6 2 5v9l-4 7-9 6h-9l-7-4-6-9-1-6 3-8 7-7z" fill="#223E4C"/>
<path transform="translate(487,334)" d="m0 0h10l7 3 6 9v12l-2 4h-2v2l-10 6h-6l-8-5-5-6-2-6 1-9 5-6z" fill="#223E4C"/>
</svg>
