<svg version="1.1" viewBox="0 0 1024 1024" width="1024" height="1024" xmlns="http://www.w3.org/2000/svg">
<path transform="translate(0)" d="m0 0h1024v1024h-1024z" fill="#CEDCDD"/>
<path transform="translate(356,151)" d="m0 0h352l25 4 17 5 15 6 17 9 14 10 13 12 10 10 13 18 10 18 9 22 5 20 2 12 1 20v339l-2 18-4 20-9 26-9 17-10 14-8 10-12 13-12 10-18 11-14 7-17 6-20 5-15 2h-366l-20-3-21-6-17-7-15-8-12-9-12-11-13-13-10-14-9-15-8-18-6-19-3-16-1-8v-324l1-46 3-20 4-15 6-16 10-19 11-16 15-16 10-9 17-12 15-8 20-8 19-5 11-2z" fill="#223D4B"/>
<path transform="translate(520,214)" d="m0 0h16l18 3 16 6 18 11 12 11 12 14 9 16 5 16 2 14v22l-3 14-5 13-11 18-4 7v17l4 10 6 9 8 10 12 10 12 6 13 3 12 1 58 1 15 3 9 4 15 9 12 11 8 10 8 15 5 17 1 9v16l-3 16-6 14-10 15-11 11-12 7-14 5-11 2h-16l-14-3-10-4-12-9-7-8-8-15-2-9v-13l4-15 6-10 9-6 6-2 9-1 11 2 10 6 6 8 1 7-4 5h-15l-5 3-1 2 1 10 4 6 6 4 10 2 11-1 10-5 6-5 7-14 1-5v-15l-4-12-7-10-8-7-12-5-6-1-43-1-18-1-21-4-12-5-11-6-10-8-8-9-10-19-7-15-2-1h-8l-3 2v13l3 15 7 25 5 12 10 14 10 9 10 8 8 8 7 8 8 11 5 11 4 15 2 10 2 42 1 12v16l-5 16-6 11-9 10-7 7-13 6-9 2h-19l-11-3-10-5-11-9-7-11-4-16-1-10v-22l2-14 4-11 4-6 8-7 3-1h9l8 7 1 3v15l-4 13v14l4 12 7 6 4 2h7l8-4 4-10v-23l-1-32-3-10-6-12-8-10-9-9-13-10-10-9-10-14-5-12-2-9-1-56-10-1-3-1h-10l-2-1 1 16v34l-1 11-5 12-10 15-16 16-11 9-9 9-7 10-6 12-3 13v30l1 20 5 10 8 6h8l7-4 5-8 1-4v-17l-3-11-8-10v-10l4-6 6-3h11l11 6 7 8 5 12 4 18v28l-2 9-7 14-7 9-10 7-15 5-7 1h-13l-12-3-12-6-12-11-7-9-6-13-2-9v-65l3-21 4-13 8-18 9-12 11-11 11-9 7-6 10-14 5-12 7-19 3-9 3-17-1-5-9 1-5 4-11 18-10 14-9 9-11 7h-3v2l-14 6-15 4-67 1-12 3-8 4-10 8-6 8-4 11-1 11 2 10 6 12 5 5 8 5 9 3h11l8-3 6-5 3-5v-9l-2-4-16-1-6-3-2-3v-7l4-6 8-5 16-3 10 1 10 6 10 13 4 10 1 4v16l-4 13-9 13-10 9-15 7-15 3h-14l-15-3-16-7-9-7-10-9-8-11-7-14-3-12-1-7v-20l4-18 8-16 6-9 9-10 14-11 12-6 11-3 7-1 18-1 45-1 16-2 13-4 16-8 9-7 6-8 5-12 2-7 1-9-1-12-6-9-9-14-4-8-4-14-1-6v-28l3-11 6-16 9-14 12-14 10-8 13-8 17-7 12-3z" fill="#1BDCC3"/>
<path transform="translate(218,736)" d="m0 0 4 5 10 14 9 10 13 13 12 9 13 8 17 8 22 7 16 3 9 1h366l19-3 23-6 21-9 18-11 10-8 12-11 9-11 9-12 4-5h2v2h2l2 7-1 6-2 15-3 5-1 5-3 5-4 5-2 7-3 2-3 6-4 4h-2l-2 4-8 9-9 6-5 6-4 1-5 5-5 2-3 3-8 4-9 2-3 3-15 4-8 1-7 5h-6l-9 2h-7l-7-2-34 1-5 1h-43l-20 1-8-1h-24l-14 2h-12l-5-1-23-1-13 1-9-1h-17l-25 1h-6l-3-2h-32l-7-1h-42l-12-3-9-1-8-4-16-3-3-1h-8l-6-3-7-3-9-4-6-4-6-3-10-8-6-4-6-7-6-10-5-6v-2l-4-2-4-9-3-5-2-11-4-6-2-11-1-8 2-6 6-1z" fill="#BACAD0"/>
<path transform="translate(607,404)" d="m0 0 15 20 9 8 11 7 12 4 18 2 58 1 15 3 9 4 15 9 12 11 8 10 8 15 5 17 1 9v16l-3 16-6 14-10 15-11 11-12 7-14 5-11 2h-16l-14-3-10-4-12-9-7-8-8-15-2-9v-13l4-15 6-10 9-6 6-2 9-1 11 2 10 6 6 8 1 7-4 5h-15l-5 3-1 2 1 10 4 6 6 4 10 2 11-1 10-5 6-5 7-14 1-5v-15l-4-12-7-10-8-7-12-5-6-1-43-1-18-1-21-4-12-5-11-6-10-8-8-9-6-11-4-15v-11l8-6 8-3z" fill="#E8F5F5"/>
<path transform="translate(448,414)" d="m0 0 2 3 12 1 6 2v12l-4 14-10 14-9 9-11 7h-3v2l-14 6-15 4-67 1-12 3-8 4-10 8-6 8-4 11-1 11 2 10 6 12 5 5 8 5 9 3h11l8-3 6-5 3-5v-9l-2-4-16-1-6-3-2-3v-7l4-6 8-5 16-3 10 1 10 6 10 13 4 10 1 4v16l-4 13-9 13-10 9-15 7-15 3h-14l-15-3-16-7-9-7-10-9-8-11-7-14-3-12-1-7v-20l4-18 8-16 6-9 9-10 14-11 12-6 11-3 7-1 18-1 45-1 16-2 13-4 16-8 9-7z" fill="#E8F5F5"/>
<path transform="translate(501,420)" d="m0 0h10l2 2 2 12 2 20v34l-1 11-5 12-10 15-16 16-11 9-9 9-7 10-6 12-3 13v30l1 20 5 10 8 6h8l7-4 5-8 1-4v-17l-3-11-8-10v-10l4-6 6-3h11l11 6 7 8 5 12 4 18v28l-2 9-7 14-7 9-10 7-15 5-7 1h-13l-12-3-12-6-12-11-7-9-6-13-2-9v-65l3-21 4-13 8-18 9-12 11-11 11-9 7-6 10-14 5-12 7-19 3-8h2l4-16 5-8z" fill="#E8F5F5"/>
<path transform="translate(556,419)" d="m0 0h6l3 3 4 13 1 1 3 15 7 25 5 12 10 14 10 9 10 8 8 8 7 8 8 11 5 11 4 15 2 10 2 42 1 12v16l-5 16-6 11-9 10-7 7-13 6-9 2h-19l-11-3-10-5-11-9-7-11-4-16-1-10v-22l2-14 4-11 4-6 8-7 3-1h9l8 7 1 3v15l-4 13v14l4 12 7 6 4 2h7l8-4 4-10v-23l-1-32-3-10-6-12-8-10-9-9-13-10-10-9-10-14-5-12-2-9v-59h2l1-7 9-10z" fill="#E8F5F5"/>
<path transform="translate(356,151)" d="m0 0h352l25 4 17 5 3 1 1 7 9 1 3-1 9 5 1 4h2v3h-2l1 3-3-1h-1l-6 2-7-1-6-2-2-2-6-1v-1l-22-1-10 1-3 2 2 5 7 1 4 2-1 3-3 1h-21l-1-5 6-3v-8l-2-1-1-3-3-1-1 4-1-4 3-3-4 4-1 3h-5l-3-5h-2l2 1v4l-2 1-13 1h-29l-2-2-2-5-4 1-1 5-4 3-5-2-2-3v-3l-2-1h-8l-3 2-3 5-5 3-1 10-3 3h-54v-2h-5l-4-2v-2h-4v-2h-12v2l-12 1-4 3-7 1h-32l-6-1v2l-18 1-4-1h-76v-7-3-3h-7l-2 1h-12l-6-2h-10l-1-3-2 4 2 5 2 1 11 1v4l-2 1-21 1h-25l-2-2-1-5-2-2v-3l-2 5-3-3 1-6 8-6 3-3 20-8 19-5 11-2z" fill="#2C4C5B"/>
<path transform="translate(319,274)" d="m0 0h26l13 3 16 8 13 10 7 7 6 10 5 11 4 23 7 14 8 9 11 8-1 14-2 9-5 8-6 3-10-1-13-5-10-8-7-8-5-11-3-9-3-22-4-11-6-9-8-6-11-4h-19l-12 5-9 7-4 5-3 6-1 11 2 9 5 9 6 4h9l4-4 1-6-2-10 4-6 5-2h7l7 4 6 7 3 8v12l-4 13-6 9-8 8-8 4-7 2h-18l-15-5-9-6-9-8-7-11-5-12-2-8-1-14 2-15 3-12 8-15 8-10 9-8 14-8 17-5z" fill="#E8F5F5"/>
<path transform="translate(710,274)" d="m0 0h28l16 4 14 7 12 9 8 8 9 14 5 13 2 10v26l-4 13-7 12-9 10-9 6-13 5-5 1h-14l-13-4-9-6-8-9-4-8-1-5v-17l3-9 6-5 9-3 9 2 4 6-1 14 5 5h7l6-3 5-6 2-6v-15l-3-9-7-9-9-5-9-3h-17l-11 4-9 6-6 8-4 10-1 5-1 16-4 13-7 11-6 8-10 8-7 4-4 1h-11l-5-5-4-8-3-16v-5l9-6 6-5 8-14 3-14 3-16 4-10 8-12 4-5 11-9 14-8z" fill="#E8F5F5"/>
<path transform="translate(606,321)" d="m0 0 8 1 1 2v10l-2 18-2 5-9 10h-2l-1 5 2 15 1 1 2-4 2 16 1 2v8l-5 3-7 3-4 3v11l3 10-1 3-10-21-2-1h-8l-3 2-1 12h-1l-4-13v-2h-8l-8 8-3 6-2 5v14h-1l-1-12-10-1-3-1h-10l-2-1v10h-1l-2-22-2-5h-10l-5 5-4 11-3 9-2-2 3-16-1-5-9 1-5 4-9 15-1-4 2-7 1-12-18-2-2-5 1-2h2v2l10 2 8 3 4 4v4h2v-10l-3-11-4-8h-4v-3h-2l-2-6-1-14 1-8h2v-2l6 1 6 4h6l2-2-6-10-1-9 3-7 7-6 7-2 9 3 6 5 3 7v8l-4 9 13-1 7-1 3-3 1-2 2 1 1 4 7 4v2l9 2 9-2-8-8-3-7 1-8 6-8 4-3 3-1h7l7 3 6 7 2 5v7l-5 8-6 4h-2l1 1 6-2 5-1 5-5 2-15 1-1 2-13 8-7h5z" fill="#1ACABB"/>
<path transform="translate(728,811)" d="m0 0h2v4l-3 3h-2l-1 3-15 6-12 3-10 3-11 1h-16l-11 2-36 1-6 1-19-1-5-1h-24l-3 1-14 1h-28l-7-2h-26l-3 1-17-1-5-1-51-1-4 1-10-2-11 1h-3l-14-4-2-4-5-2-9-2-9-3-7-2-9-1-1-3 7-1 15 2h366z" fill="#9ABBC3"/>
<path transform="translate(825,310)" d="m0 0h5l1 1 7 1v-2l9 1 5 1 5-2 2 7v53h-1l-1 8-2 4v3l-6-2-1-1v-12l3-1v-8l-3-2-1-6h2l-1-8-5-4-1-5 3-1 1-5-2-1 2-1-2-2 3-1v-2l-5-1-1 4-2-4h-11l-4-2-2-5z" fill="#2C4C5B"/>
<path transform="translate(561,334)" d="m0 0h7l7 3 6 7 2 5v7l-5 8-8 5h-10l-5-3-6-7-2-5 1-8 6-8 4-3z" fill="#223D4B"/>
<path transform="translate(490,333)" d="m0 0 10 2 7 6 3 7v8l-5 8-8 5h-8l-7-4-5-6-2-6 1-9 7-8z" fill="#223D4B"/>
<path transform="translate(516,438)" d="m0 0h12l13 3 1 3v44h-1l-1-11-16-3h-6l-2-20z" fill="#2C4C5B"/>
<path transform="translate(581,151)" d="m0 0h111l-2 5-6 4-6 1v1h-13l-2-2-8 1-6-4-9-1-2-1-2 4-6 1-3-3-1-4h-22l-23-1z" fill="#223D4B"/>
<path transform="translate(381,151)" d="m0 0h178v1l-8 1-2 4-2 1h-8l-6-4v-2l-23 1 1 4-4-1v-2l-4 1-2-1v2h-4v-2l-8-1-3 1v2l2 1-6 1v-3l-2-2h-7l-1 3-3-1-1-2h-53l-1 3h-4l-2-3h-10l-2 2-22 1 1-4z" fill="#223D4B"/>
<path transform="translate(480,423)" d="m0 0h9l2 6-4 21-4 9-2-1v-2l-3 1-2-18-2-2-3-1 4-5 3-3-3-1z" fill="#2C4C5B"/>
<path transform="translate(676,387)" d="m0 0 4 4 2 5-4 5-7 4-5 8-2 2-6 1h-8l-2-1v-2l-3-1h3v-2l8-3 9-7 4-2 2-4z" fill="#2C4B5A"/>
<path transform="translate(392,400)" d="m0 0 10 6 14 4v2h-2l1 5-2 5-6 4-5-1-5-5-3-6v-5l3-1v-3l-5-2z" fill="#2C4C5B"/>
<path transform="translate(222,231)" d="m0 0 4 2 1 6-3 11-4 3h-2l-2 5-3 5-4-1-1-3 2-7 4-8h3l1-6h2v-5l2-1z" fill="#2C4C5B"/>
<path transform="translate(602,395)" d="m0 0 2 4 1 8-10 5-4 5h-2l-1 6-3-4 2-9 3-6 4-6 8-1z" fill="#1BDDC4"/>
<path transform="translate(449,411)" d="m0 0h2v2l10 2 8 3 4 4v4h2l-2 6-7 11-1-4 2-7 1-12-18-2-2-5z" fill="#1FCABB"/>
<path transform="translate(587,430)" d="m0 0 3 4 9 19 3 5-2 1v-2l-7-2-6-7-2-5 1-8z" fill="#2D4D5C"/>
<path transform="translate(720,523)" d="m0 0 4 2 4 6 1 7-4 5h-11l-2-1v-2l4-4h2v-2l6-2-3-7z" fill="#CCDADC"/>
<path transform="translate(260,180)" d="m0 0 3 1-1 3-13 10-11 11-9 11-8 12-2-2 7-11 1-2h2v-2h2l1-5 5-4h2l4-8h2v-2h3v-2l5-3 2-2z" fill="#DAEAEC"/>
<path transform="translate(452,461)" d="m0 0 3 1-1 2h-2l-2 5-6 5-3 3-7 2-7 4-10 4h-5l2-1v-2l15-6h2v-2l10-5z" fill="#2B4C5B"/>
<path transform="translate(508,211)" d="m0 0 10 1 8 1v1l-19 3-15 5-18 9 2-5 8-4 8-3 6-3h4v-2l6-1z" fill="#2D4D5C"/>
<path transform="translate(201,309)" d="m0 0 7 1 2 1-1 7-4 6-4-1-3-6 1-4z" fill="#2D4D5C"/>
<path transform="translate(342,269)" d="m0 0h6l5 3v2l-2 1-30-1v-2z" fill="#2A4958"/>
<path transform="translate(409,430)" d="m0 0h2v2l2 1-2 8-8 2h-5l-1-3 2-2 2 1v-2l3-2 2-4z" fill="#2C4C5B"/>
<path transform="translate(331,252)" d="m0 0 4 2 2 6v6l-2 1v-2l-3 2h-3l-3-5v-2h2l-1-3z" fill="#2D4D5C"/>
<path transform="translate(755,256)" d="m0 0 5 2 1 2-1 8-5 3-2-1-2-10z" fill="#2D4D5C"/>
<path transform="translate(327,527)" d="m0 0 3 3 1 5 4 2 5 2 10 2v1h-16l-6-3-2-3v-7z" fill="#C3D4D7"/>
<path transform="translate(251,372)" d="m0 0h3l4 10-1 3-5 1-2 1-2-5 1-8z" fill="#2C4C5B"/>
<path transform="translate(716,152)" d="m0 0h14l23 6 5 4-8-1-17-5-17-3z" fill="#C8DBDF"/>
<path transform="translate(448,414)" d="m0 0 2 3 12 1 6 2v12l-2 4v-12l-1-2-17-1-1-5z" fill="#C3D4D7"/>
<path transform="translate(849,257)" d="m0 0 2 3 4 9 2 14 2 1v9l-2 1-6-25-2-7z" fill="#DBEBED"/>
<path transform="translate(753,162)" d="m0 0 5 1 17 8-4 1-5-3-4 1-8-1-1-5z" fill="#233F4D"/>
<path transform="translate(605,403)" d="m0 0h2v7l-5 3-7 3-4 3h-2v-2l5-5 7-4 3-1z" fill="#19CBBB"/>
<path transform="translate(259,386)" d="m0 0 1 2 3 1 3 7-13-1v-2l2-1-1-3z" fill="#2C4C5B"/>
<path transform="translate(513,422)" d="m0 0 2 3 2 11h9l10 3v1l-16-1-4-1v10h-1z" fill="#97BCC3"/>
<path transform="translate(496,530)" d="m0 0 4 2h-2l-2 4-10 8-1 2h-2l-1 2v-3l1-3 8-7z" fill="#2A4A58"/>
<path transform="translate(812,199)" d="m0 0 4 1 6 7v2h2v3l4 2v4l-3-1-9-12-4-4z" fill="#D8E9EA"/>
<path transform="translate(607,404)" d="m0 0 2 4-2 5-12 5-3 2-1 10h-1v-11l8-6 8-3z" fill="#BED1D4"/>
<path transform="translate(514,502)" d="m0 0 2 3-2 7h-2l-2 5-1 3-5 3 1-5 7-11z" fill="#2B4A59"/>
<path transform="translate(573,420)" d="m0 0h8l3 2-1 2-3-2h-8v18l-3-4v-13z" fill="#2D4D5C"/>
<path transform="translate(720,523)" d="m0 0 4 2 4 6 1 7-4 5h-11v-1l10-1 2-7-4-8z" fill="#9ABBC3"/>
<path transform="translate(660,407)" d="m0 0h5l-1 5-4 2-9-1 1-2 8-2z" fill="#223D4B"/>
<path transform="translate(496,217)" d="m0 0m-1 1m-3 1h3v2l-16 7-5 3 2-5 8-4z" fill="#2B4B5A"/>
<path transform="translate(578,196)" d="m0 0h12l-1 4h-10z" fill="#2D4D5C"/>
<path transform="translate(346,186)" d="m0 0h11v4h-11z" fill="#2D4D5C"/>
<path transform="translate(199,275)" d="m0 0h1v8l-3 19h-1v-9l1-8v-3z" fill="#DCECED"/>
<path transform="translate(327,536)" d="m0 0 7 3 16 2v1h-16l-6-3z" fill="#A1BFC6"/>
<path transform="translate(719,521)" d="m0 0 5 1v2l4 2 2 3v9l-6-12z" fill="#2D4D5C"/>
<path transform="translate(445,257)" d="m0 0 2 1-8 13-3 8h-2l2-10 3-1 2-5z" fill="#2B4A59"/>
<path transform="translate(648,410)" d="m0 0 4 1-1 2 9 1-2 2h-8l-2-1v-2l-3-1h3z" fill="#2D4D5C"/>
<path transform="translate(320,153)" d="m0 0m-1 1 1 2-17 6h-5l4-3z" fill="#D6E7E9"/>
<path transform="translate(813,250)" d="m0 0h8v4l-5 1-4-2z" fill="#2D4D5C"/>
<path transform="translate(557,217)" d="m0 0 6 1 10 5-2 2-8-4-6-2z" fill="#2A4857"/>
<path transform="translate(570,420)" d="m0 0 3 1-3 2-1 12h-1l-3-13 4-1z" fill="#90BDC3"/>
<path transform="translate(608,466)" d="m0 0 5 2 8 6-1 2-10-6z" fill="#2B4A59"/>
<path transform="translate(490,429)" d="m0 0 2 4-1 8-2 5-2-2z" fill="#9EBDC5"/>
<path transform="translate(208,248)" d="m0 0h2l-5 15h-1l1-9z" fill="#C8DCDF"/>
<path transform="translate(773,169)" d="m0 0 5 1 5 3v2l2 1-5-1-7-4z" fill="#D3E4E6"/>
<path transform="translate(341,396)" d="m0 0 3 1-5 5h-2l-1 3h-3l6-7z" fill="#2A4958"/>
<path transform="translate(251,328)" d="m0 0h1v7l-2 4-1-1-1-9z" fill="#2D4D5C"/>
<path transform="translate(719,270)" d="m0 0h7l2 2-1 1h-9z" fill="#2D4D5C"/>
<path transform="translate(747,157)" d="m0 0 8 2 3 3-8-1-3-1z" fill="#D5E6E8"/>
<path transform="translate(736,154)" d="m0 0 11 3v2l-9-2-5-1z" fill="#CBDFE2"/>
</svg>
